<?xml version="1.0" standalone="no"?>
<!DOCTYPE svg PUBLIC "-//W3C//DTD SVG 20010904//EN"
 "http://www.w3.org/TR/2001/REC-SVG-20010904/DTD/svg10.dtd">
<svg version="1.0" xmlns="http://www.w3.org/2000/svg"
 width="375.000000pt" height="375.000000pt" viewBox="0 0 375.000000 375.000000"
 preserveAspectRatio="xMidYMid meet">
<metadata>
Created by potrace 1.11, written by Peter Selinger 2001-2013
</metadata>
<g transform="translate(0.000000,375.000000) scale(0.100000,-0.100000)"
fill="#000000" stroke="none">
<path d="M205 3540 c10 -11 20 -20 23 -20 3 0 -3 9 -13 20 -10 11 -20 20 -23
20 -3 0 3 -9 13 -20z"/>
<path d="M3519 3519 l-36 -44 38 -50 c21 -28 51 -79 66 -115 l28 -65 3 -1340
c2 -905 -1 -1356 -8 -1389 -37 -174 -184 -324 -365 -371 -88 -22 -2651 -23
-2738 0 -69 18 -138 52 -191 94 l-38 31 -45 -37 -45 -37 38 -32 c58 -49 135
-93 216 -122 l73 -27 1360 0 1360 0 73 27 c200 73 343 219 405 413 l22 70 0
1350 0 1350 -22 70 c-24 76 -75 167 -126 229 l-33 38 -35 -43z"/>
<path d="M1485 3275 c-151 -35 -253 -132 -289 -273 -38 -146 3 -287 112 -383
112 -99 278 -124 410 -64 64 30 152 111 180 167 94 187 30 407 -148 510 -81
47 -181 63 -265 43z"/>
<path d="M2485 3020 c-215 -69 -324 -324 -225 -526 51 -104 142 -178 249 -204
102 -24 179 -15 270 31 149 76 234 255 196 413 -37 156 -143 263 -293 295 -74
15 -127 13 -197 -9z"/>
<path d="M728 2485 c-68 -18 -130 -58 -178 -112 -52 -60 -64 -82 -85 -163 -76
-289 206 -546 493 -449 236 80 329 374 185 582 -84 122 -265 184 -415 142z"/>
<path d="M2778 1989 c-96 -38 -179 -109 -213 -184 -85 -184 -28 -390 136 -496
140 -90 337 -73 463 40 86 77 136 219 118 335 -6 35 -20 84 -32 110 -23 52
-107 141 -159 170 -86 47 -228 59 -313 25z"/>
<path d="M1070 1478 c-25 -4 -56 -13 -70 -19 -14 -6 -36 -17 -50 -23 -33 -15
-110 -92 -141 -141 -46 -71 -64 -185 -44 -269 37 -156 143 -263 293 -295 76
-16 121 -14 193 9 219 68 329 322 229 525 -76 156 -242 242 -410 213z"/>
<path d="M2079 1225 c-92 -23 -204 -114 -242 -196 -107 -227 17 -486 259 -542
199 -47 397 73 448 271 38 145 -3 287 -111 382 -99 87 -227 118 -354 85z"/>
</g>
</svg>
