<svg version="1.1" xmlns="http://www.w3.org/2000/svg" xmlns:xlink="http://www.w3.org/1999/xlink" x="0px" y="0px" width="158.065px" height="60.316px" viewBox="0 0 158.065 60.316" enable-background="new 0 0 158.065 60.316" xml:space="preserve">
<g>
<polygon points="77.61,9.209 85.555,7.451 85.555,14.2 87.943,13.708 87.943,20.246 85.555,20.808 85.555,44.357 77.61,46.115 77.61,22.566 75.29,23.058 75.29,16.449 77.61,15.958"/>
<polygon points="12.583,41.055 0,22.425 10.474,20.176 16.801,29.595 22.777,17.434 33.251,15.184 21.089,39.156 21.089,58.418 12.583,60.316"/>
<path d="M51.951,11.107l8.014-1.688v10.404l6.398-1.406c5.834-1.265,8.014,2.18,8.014,6.749v21.653l-8.014,1.756V29.033 c0-2.531-0.985-3.796-3.234-3.304l-3.164,0.633v23.621l-8.014,1.756V11.107L51.951,11.107z"/>
<path d="M36.274,24.956l13.85-3.022v30.158l-8.015,1.758v-2.531c-2.39,3.094-4.077,4.146-7.241,4.852 c-6.679,1.404-10.826-5.133-10.826-11.811C24.042,32.828,30.088,26.292,36.274,24.956L36.274,24.956z M38.172,31.07 c-4.429,0.916-5.765,5.273-5.765,11.461c0,4.709,2.25,6.748,4.71,6.395c1.968-0.279,4.077-2.037,4.991-4.99V30.158L38.172,31.07 L38.172,31.07z"/>
<path d="M89.068,13.356l21.23-4.569c0,10.966-11.389,20.387-13.074,26.292l13.074-2.811v6.678l-22.145,4.85 c0-9.98,9.068-19.049,13.498-26.571l-12.584,2.741V13.356L89.068,13.356z"/>
<path d="M122.109,12.443c2.461-0.563,3.938,1.335,4.289,3.515l-8.787,1.968C118.172,14.552,119.93,12.935,122.109,12.443 L122.109,12.443z M123.094,5.343c-6.678,0-12.936,7.522-13.639,16.801c-0.773,9.421,3.865,15.185,10.545,15.185 c6.818,0,11.951-5.764,13.498-13.146c0,0,0.07,0,0.07-0.07l-7.521,1.617c-0.773,2.531-2.393,4.146-4.359,4.499 c-1.969,0.422-4.217-0.843-4.217-6.046l16.309-3.585C134.201,11.318,130.545,5.343,123.094,5.343L123.094,5.343z"/>
<path d="M146.363,7.17c2.461-0.563,3.865,1.336,4.287,3.515l-8.787,1.898C142.355,9.209,144.184,7.592,146.363,7.17L146.363,7.17z M147.348,0c-6.68,0-12.936,7.522-13.709,16.872c-0.703,9.42,3.938,15.185,10.615,15.185c6.818,0,11.881-5.765,13.498-13.216l0,0 l-7.453,1.617c-0.773,2.46-2.389,4.078-4.357,4.499c-1.969,0.422-4.289-0.914-4.289-6.116l16.381-3.585 C158.455,5.975,154.799,0,147.348,0L147.348,0z"/>
</g>
</svg>
